<svg xmlns="http://www.w3.org/2000/svg" width="40" height="40" viewBox="0 0 40 40">
  <g id="Group_948" data-name="Group 948" transform="translate(-136.5 -62)">
    <circle id="Ellipse_78" data-name="Ellipse 78" cx="20" cy="20" r="20" transform="translate(136.5 62)" fill="#fff"/>
    <path id="ic_monetization_on_24px" d="M15.885,2C8.22,2,2,7.687,2,14.7s6.22,12.7,13.885,12.7S29.77,21.7,29.77,14.7,23.55,2,15.885,2Zm1.958,20.426v2.425H14.135V22.4c-2.374-.457-4.388-1.853-4.54-4.316h2.721c.139,1.333,1.139,2.374,3.68,2.374,2.721,0,3.332-1.244,3.332-2.019,0-1.054-.611-2.044-3.707-2.717-3.443-.762-5.8-2.057-5.8-4.659,0-2.184,1.93-3.605,4.318-4.075V4.539h3.707V7.015a4.611,4.611,0,0,1,3.957,4.3H19.079C19.009,9.909,18.19,8.944,16,8.944c-2.083,0-3.332.863-3.332,2.082,0,1.066.9,1.765,3.707,2.425s5.8,1.765,5.8,4.964C22.161,20.738,20.259,22.007,17.843,22.426Z" transform="translate(141 67)" fill="#707070"/>
  </g>
</svg>
