<svg xmlns="http://www.w3.org/2000/svg" width="40" height="40" viewBox="0 0 40 40">
  <g id="Group_511" data-name="Group 511" transform="translate(-144 -746)">
    <g id="Ellipse_94" data-name="Ellipse 94" transform="translate(144 746)" fill="#fff" stroke="#707070" stroke-width="1">
      <circle cx="20" cy="20" r="20" stroke="none"/>
      <circle cx="20" cy="20" r="19.5" fill="none"/>
    </g>
    <g id="Icons" transform="translate(151.786 751.467)">
      <g id="Color-" transform="translate(0.214 0.533)">
        <g id="Google" transform="translate(0 0)">
          <path id="Fill-1" d="M5.237,19.806a9.355,9.355,0,0,1,.368-2.6L1.473,13.6a15.9,15.9,0,0,0,0,12.4l4.13-3.61a9.36,9.36,0,0,1-.364-2.587" transform="translate(-0.214 -5.806)" fill="#fbbc05" fill-rule="evenodd"/>
          <path id="Fill-2" d="M13.643,6.261a6.591,6.591,0,0,1,4.521,1.845l3.572-4.073a11.412,11.412,0,0,0-8.093-3.5C8.791.533,4.62,3.7,2.623,8.331l4.132,3.6a7.4,7.4,0,0,1,6.887-5.674" transform="translate(-1.364 -0.533)" fill="#eb4335" fill-rule="evenodd"/>
          <path id="Fill-3" d="M13.643,34.03a7.4,7.4,0,0,1-6.887-5.674l-4.132,3.6c2,4.63,6.167,7.8,11.02,7.8a10.926,10.926,0,0,0,8-3.489l-3.923-3.462a6.889,6.889,0,0,1-4.078,1.224" transform="translate(-1.364 -11.757)" fill="#34a853" fill-rule="evenodd"/>
          <path id="Fill-4" d="M35.435,22.279a13.165,13.165,0,0,0-.279-2.545H23.714v5.409H30.3a6.374,6.374,0,0,1-2.508,4.185l3.923,3.462a14.968,14.968,0,0,0,3.721-10.511" transform="translate(-11.435 -8.279)" fill="#4285f4" fill-rule="evenodd"/>
        </g>
      </g>
    </g>
  </g>
</svg>
