<svg xmlns="http://www.w3.org/2000/svg" width="40" height="40" viewBox="0 0 40 40">
  <g id="Group_453" data-name="Group 453" transform="translate(-75 -39)">
    <g id="Group_452" data-name="Group 452" transform="translate(38 -66)">
      <circle id="Ellipse_74" data-name="Ellipse 74" cx="20" cy="20" r="20" transform="translate(37 105)" fill="#fff"/>
    </g>
    <g id="Group_451" data-name="Group 451" transform="translate(74 -30)">
      <rect id="Rectangle_337" data-name="Rectangle 337" width="23.77" height="25.39" transform="translate(11 76)" fill="#707070"/>
      <path id="ic_home_24px" d="M6.6,14.08V10.169H8.9V14.08h2.876V8.866H13.5L7.752,3,2,8.866H3.726V14.08Z" transform="translate(12 77.045)" fill="#fff"/>
      <g id="Path_144" data-name="Path 144" transform="translate(7 83.39)" fill="none">
        <path d="M2,0H4.094C5.2,0,5,.9,5,2V16c0,1.1.183,2-.922,2H2a2,2,0,0,1-2-2V2A2,2,0,0,1,2,0Z" stroke="none"/>
        <path d="M 1.999999761581421 1 C 1.448599815368652 1 0.9999995231628418 1.448600769042969 0.9999995231628418 2 L 0.9999995231628418 16 C 0.9999995231628418 16.55139923095703 1.448599815368652 17 1.999999761581421 17 L 4.006019592285156 17 C 4.014972686767578 16.83945274353027 4.010088920593262 16.61558723449707 4.006179809570312 16.43642997741699 C 4.003139495849609 16.297119140625 3.999999761581421 16.15306091308594 3.999999761581421 16 L 3.999999761581421 2 C 3.999999761581421 1.835790634155273 4.003889560699463 1.682170867919922 4.00763988494873 1.533599853515625 C 4.011916160583496 1.364742279052734 4.017220020294189 1.155000686645508 4.01032543182373 1 L 1.999999761581421 1 M 1.999999761581421 0 L 4.09375 0 C 5.198319911956787 0 4.999999523162842 0.8954296112060547 4.999999523162842 2 L 4.999999523162842 16 C 4.999999523162842 17.10457038879395 5.182689666748047 18 4.078129768371582 18 L 1.999999761581421 18 C 0.8954296112060547 18 -4.76837158203125e-07 17.10457038879395 -4.76837158203125e-07 16 L -4.76837158203125e-07 2 C -4.76837158203125e-07 0.8954296112060547 0.8954296112060547 0 1.999999761581421 0 Z" stroke="none" fill="#707070"/>
      </g>
      <rect id="Rectangle_339" data-name="Rectangle 339" width="7" height="4" transform="translate(26 81)" fill="#fff"/>
      <line id="Line_25" data-name="Line 25" x2="7" transform="translate(26 87.5)" fill="none" stroke="#fff" stroke-width="1"/>
      <line id="Line_26" data-name="Line 26" x2="5.5" transform="translate(26 90.5)" fill="none" stroke="#fff" stroke-width="1"/>
      <line id="Line_27" data-name="Line 27" x2="19.5" transform="translate(13.5 94.5)" fill="none" stroke="#fff" stroke-width="1"/>
      <line id="Line_28" data-name="Line 28" x2="18" transform="translate(13.5 97.5)" fill="none" stroke="#fff" stroke-width="1"/>
    </g>
  </g>
</svg>
