<svg xmlns="http://www.w3.org/2000/svg" width="40" height="40" viewBox="0 0 40 40">
  <g id="Group_949" data-name="Group 949" transform="translate(-233.5 -62)">
    <g id="Group_459" data-name="Group 459" transform="translate(28.5)">
      <circle id="Ellipse_79" data-name="Ellipse 79" cx="20" cy="20" r="20" transform="translate(205 62)" fill="#fff"/>
      <g id="Group_458" data-name="Group 458" transform="translate(-70 23)">
        <rect id="Rectangle_340" data-name="Rectangle 340" width="27.77" height="25.39" rx="9" transform="translate(281 46)" fill="#707070"/>
      </g>
    </g>
    <path id="ic_place_24px" d="M11.213,2A6.1,6.1,0,0,0,5,7.991c0,4.493,6.213,11.126,6.213,11.126s6.213-6.633,6.213-11.126A6.1,6.1,0,0,0,11.213,2Zm0,8.131a2.181,2.181,0,0,1-2.219-2.14,2.221,2.221,0,0,1,4.438,0A2.181,2.181,0,0,1,11.213,10.131Z" transform="translate(242.389 71.65)" fill="#fff"/>
  </g>
</svg>
