<svg xmlns="http://www.w3.org/2000/svg" width="30" height="27" viewBox="0 0 30 27">
  <path id="ic_folder_shared_24px" d="M28.1,7.25H16.5L13.6,4H4.9A3.088,3.088,0,0,0,2.014,7.25L2,26.75A3.1,3.1,0,0,0,4.9,30H28.1A3.1,3.1,0,0,0,31,26.75V10.5A3.1,3.1,0,0,0,28.1,7.25Zm-7.25,4.875a3.1,3.1,0,0,1,2.9,3.25,3.1,3.1,0,0,1-2.9,3.25,3.1,3.1,0,0,1-2.9-3.25A3.1,3.1,0,0,1,20.85,12.125Zm5.8,13H15.05V23.5c0-2.161,3.871-3.25,5.8-3.25s5.8,1.089,5.8,3.25Z" transform="translate(-1.5 -3.5)" fill="#c6c6c6" stroke="#707070" stroke-width="1"/>
</svg>
