<svg xmlns="http://www.w3.org/2000/svg" width="25.666" height="26" viewBox="0 0 25.666 26">
  <g id="Group_478" data-name="Group 478" transform="translate(-276 -760)">
    <g id="Group_477" data-name="Group 477" transform="translate(276 760)">
      <g id="Group_475" data-name="Group 475">
        <g id="Subtraction_21" data-name="Subtraction 21" transform="translate(0 0)" fill="#c6c6c6">
          <path d="M 15.4619836807251 25.64999961853027 L 3.092564105987549 25.64999961853027 C 1.580314159393311 25.64999961853027 0.3500041365623474 24.34906959533691 0.3500041365623474 22.75 L 0.3500041365623474 3.25 C 0.3500041365623474 1.650930047035217 1.580314159393311 0.3499999940395355 3.092564105987549 0.3499999940395355 L 15.4619836807251 0.3499999940395355 C 16.97423362731934 0.3499999940395355 18.20454406738281 1.650930047035217 18.20454406738281 3.25 L 18.20454406738281 4.319600105285645 L 17.10062408447266 4.319600105285645 L 17.10062408447266 3.25 L 17.10062408447266 2.900000095367432 L 16.75062370300293 2.900000095367432 L 1.803924083709717 2.900000095367432 L 1.453924179077148 2.900000095367432 L 1.453924179077148 3.25 L 1.453924179077148 20.58333015441895 L 1.453924179077148 20.93333053588867 L 1.803924083709717 20.93333053588867 L 16.75062370300293 20.93333053588867 L 17.10062408447266 20.93333053588867 L 17.10062408447266 20.58333015441895 L 17.10062408447266 19.23380088806152 L 18.20454406738281 19.23380088806152 L 18.20454406738281 22.75 C 18.20454406738281 24.34906959533691 16.97423362731934 25.64999961853027 15.4619836807251 25.64999961853027 Z" stroke="none"/>
          <path d="M 15.4619836807251 25.29999923706055 C 16.7812442779541 25.29999923706055 17.85454368591309 24.15607070922852 17.85454368591309 22.75 L 17.85454368591309 19.58379936218262 L 17.45062446594238 19.58379936218262 L 17.45062446594238 21.2833309173584 L 1.103924155235291 21.2833309173584 L 1.103924155235291 2.549999952316284 L 17.45062446594238 2.549999952316284 L 17.45062446594238 3.969599962234497 L 17.85454368591309 3.969599962234497 L 17.85454368591309 3.25 C 17.85454368591309 1.843930006027222 16.7812442779541 0.699999988079071 15.4619836807251 0.699999988079071 L 3.092564105987549 0.699999988079071 C 1.773304104804993 0.699999988079071 0.7000041604042053 1.843930006027222 0.7000041604042053 3.25 L 0.7000041604042053 22.75 C 0.7000041604042053 24.15607070922852 1.773304104804993 25.29999923706055 3.092564105987549 25.29999923706055 L 15.4619836807251 25.29999923706055 M 15.4619836807251 26 L 3.092564105987549 26 C 1.387324094772339 26 4.131774858251447e-06 24.54206085205078 4.131774858251447e-06 22.75 L 4.131774858251447e-06 3.25 C 4.131774858251447e-06 1.457949995994568 1.387324094772339 -1.77635683940025e-15 3.092564105987549 -1.77635683940025e-15 L 15.4619836807251 -1.77635683940025e-15 C 17.1672248840332 -1.77635683940025e-15 18.55454444885254 1.457949995994568 18.55454444885254 3.25 L 18.55454444885254 4.669600009918213 L 16.75062370300293 4.669600009918213 L 16.75062370300293 3.25 L 1.803924083709717 3.25 L 1.803924083709717 20.58333015441895 L 16.75062370300293 20.58333015441895 L 16.75062370300293 18.8838005065918 L 18.55454444885254 18.8838005065918 L 18.55454444885254 22.75 C 18.55454444885254 24.54206085205078 17.1672248840332 26 15.4619836807251 26 Z" stroke="none" fill="#707070"/>
        </g>
        <g id="Group_474" data-name="Group 474" transform="translate(7.37 5.457)">
          <g id="ic_payment_24px" transform="translate(-2 -4)" fill="#c6c6c6">
            <path d="M 19.78671264648438 15.50222396850586 L 19.78671264648438 5.016298294067383 C 19.88873672485352 5.181148529052734 19.94630241394043 5.367584705352783 19.94630241394043 5.564811229705811 L 19.94630241394043 14.95371150970459 C 19.94630241394043 15.1509370803833 19.88873672485352 15.33737373352051 19.78671264648438 15.50222396850586 Z M 18.11667251586914 8.275331497192383 L 4.179632186889648 8.275331497192383 L 4.179632186889648 5.914811134338379 L 18.11667251586914 5.914811134338379 L 18.11667251586914 8.275331497192383 Z M 3.082273960113525 4.518911838531494 C 3.301395416259766 4.411642551422119 3.556996583938599 4.350001335144043 3.82963228225708 4.350001335144043 L 16.96231079101562 4.350001335144043 L 3.082273960113525 4.518911838531494 Z" stroke="none"/>
            <path d="M 4.529632568359375 6.264811515808105 L 4.529632568359375 7.925331115722656 L 17.76667213439941 7.925331115722656 L 17.76667213439941 6.264811515808105 L 4.529632568359375 6.264811515808105 M 3.829631805419922 4.000001907348633 L 18.46667289733887 4.000001907348633 C 19.48212242126465 4.000001907348633 20.29630279541016 4.696341514587402 20.29630279541016 5.564810752868652 L 20.29630279541016 14.95371055603027 C 20.29630279541016 15.82218170166016 19.48212242126465 16.51852035522461 18.46667289733887 16.51852035522461 L 3.829631805419922 16.51852035522461 C 2.814182281494141 16.51852035522461 2.000001907348633 15.82218170166016 2.000001907348633 14.95371055603027 L 2.00914192199707 5.564810752868652 C 2.00914192199707 4.696341514587402 2.814182281494141 4.000001907348633 3.829631805419922 4.000001907348633 Z M 19.43671226501465 15.84285163879395 L 19.43671226501465 4.66991138458252 L 2.67738151550293 4.873861312866211 L 2.67738151550293 15.84285163879395 L 19.43671226501465 15.84285163879395 Z M 3.829631805419922 5.564810752868652 L 18.46667289733887 5.564810752868652 L 18.46667289733887 8.625330924987793 L 3.829631805419922 8.625330924987793 L 3.829631805419922 5.564810752868652 Z" stroke="none" fill="#707070"/>
          </g>
          <g id="Group_476" data-name="Group 476" transform="translate(10.983 7.68)">
            <g id="Ellipse_83" data-name="Ellipse 83" fill="#c6c6c6" stroke="#707070" stroke-width="0.7">
              <circle cx="1.444" cy="1.444" r="1.444" stroke="none"/>
              <circle cx="1.444" cy="1.444" r="1.094" fill="none"/>
            </g>
            <g id="Ellipse_84" data-name="Ellipse 84" transform="translate(2.255)" fill="#c6c6c6" stroke="#707070" stroke-width="0.7">
              <circle cx="1.444" cy="1.444" r="1.444" stroke="none"/>
              <circle cx="1.444" cy="1.444" r="1.094" fill="none"/>
            </g>
          </g>
        </g>
      </g>
      <g id="Ellipse_85" data-name="Ellipse 85" transform="translate(8 21.7)" fill="#c6c6c6" stroke="#707070" stroke-width="0.7">
        <circle cx="1.5" cy="1.5" r="1.5" stroke="none"/>
        <circle cx="1.5" cy="1.5" r="1.15" fill="none"/>
      </g>
    </g>
  </g>
</svg>
